<?xml version="1.0" ?><svg height="58px" version="1.1" viewBox="0 0 58 58" width="58px" xmlns="http://www.w3.org/2000/svg" xmlns:xlink="http://www.w3.org/1999/xlink"><title/><desc/><defs/><g fill="none" fill-rule="evenodd" id="Page-1" stroke="none" stroke-width="1"><g fill-rule="nonzero" id="006---Present" transform="translate(0.000000, -1.000000)"><path d="M36.59,26 L55,26 L55,57 C54.9967707,58.1032291 54.1032291,58.9967707 53,59 L5,59 C3.89677088,58.9967707 3.00322927,58.1032291 3,57 L3,26 L21.4,26" fill="#4E435F" id="Shape"/><path d="M21.4,26 L2,26 C0.896770878,25.9967707 0.00322927335,25.1032291 0,24 L0,18 C0.00322927335,16.8967709 0.896770878,16.0032293 2,16 L56,16 C57.1032291,16.0032293 57.9967707,16.8967709 58,18 L58,24 C57.9967707,25.1032291 57.1032291,25.9967707 56,26 L36.59,26" fill="#A773B4" id="Shape"/><path d="M34,37.8 L34,59 L24,59 L24,37.8 C26.1098875,34.8799552 27.7934358,31.6744793 29,28.28 C30.2065642,31.6744793 31.8901125,34.8799552 34,37.8 L34,37.8 Z" fill="#F4CD1E" id="Shape"/><path d="M29,16 L26,16 C24.8957747,13.9411996 23.6424305,11.9659291 22.25,10.09 C20.4,7.61 17.9,4.07 14.41,4.13 C13.7758313,4.1275259 13.1496244,4.27124551 12.58,4.55 C11.5644896,5.0819385 10.8925815,6.0973502 10.8,7.24 C10.837413,8.53142116 11.3752765,9.7577501 12.3,10.66 C14.79,13.45 18.48,14.92 21.97,16 L18.17,16 C5.66,15.13 3.66,2.05 13,1.05 C23,-0.02 29,16 29,16 Z" fill="#F6AB27" id="Shape"/><path d="M39.83,16 L36,16 C39.49,14.92 43.21,13.45 45.7,10.66 C46.6247235,9.7577501 47.162587,8.53142116 47.2,7.24 C47.1074185,6.0973502 46.4355104,5.0819385 45.42,4.55 C44.8503756,4.27124551 44.2241687,4.1275259 43.59,4.13 C40.1,4.07 37.6,7.61 35.75,10.09 C34.3575695,11.9659291 33.1042253,13.9411996 32,16 L29,16 C29,16 35,-0.02 45,1.05 C54.34,2.05 52.34,15.13 39.83,16 Z" fill="#F6AB27" id="Shape"/><path d="M29,28.28 C27.7934358,31.6744793 26.1098875,34.8799552 24,37.8 C18.44,45.17 13,44 13,44 L16,38 L9,36 C15.09,34.89 18.98,30.43 21.4,26 C23.0892767,22.8636418 24.3025571,19.4934184 25,16 L25.57,16 C26.2385147,19.3836603 27.1134836,22.7232361 28.19,26 C28.45,26.79 28.72,27.55 29,28.28 Z" fill="#EC9130" id="Shape"/><path d="M42,38 L45,44 C45,44 39.56,45.17 34,37.8 C31.8901125,34.8799552 30.2065642,31.6744793 29,28.28 C28.72,27.55 28.45,26.79 28.19,26 C27.1134836,22.7232361 26.2385147,19.3836603 25.57,16 L33,16 C33.449692,18.2729713 34.1195155,20.4967855 35,22.64 C35.4676019,23.7884778 35.9984138,24.9101934 36.59,26 C39.01,30.43 42.91,34.89 49,36 L42,38 Z" fill="#F6AB27" id="Shape"/></g></g></svg>