<?xml version="1.0" standalone="no"?>
<!DOCTYPE svg PUBLIC "-//W3C//DTD SVG 20010904//EN"
 "http://www.w3.org/TR/2001/REC-SVG-20010904/DTD/svg10.dtd">
<svg version="1.0" xmlns="http://www.w3.org/2000/svg"
 width="48.000000pt" height="48.000000pt" viewBox="0 0 48.000000 48.000000"
 preserveAspectRatio="xMidYMid meet">

<g transform="translate(0.000000,48.000000) scale(0.100000,-0.100000)"
fill="#000000" stroke="none">
<path d="M90 378 c0 -7 28 -41 62 -75 l62 -63 -62 -63 c-60 -61 -75 -87 -50
-87 7 0 41 28 75 62 l63 62 63 -62 c34 -34 68 -62 75 -62 25 0 10 26 -50 87
l-62 63 62 63 c60 61 75 87 50 87 -7 0 -41 -28 -75 -62 l-63 -62 -63 62 c-61
60 -87 75 -87 50z"/>
</g>
</svg>
