<?xml version="1.0" standalone="no"?>
<!DOCTYPE svg PUBLIC "-//W3C//DTD SVG 20010904//EN"
 "http://www.w3.org/TR/2001/REC-SVG-20010904/DTD/svg10.dtd">
<svg version="1.0" xmlns="http://www.w3.org/2000/svg"
 width="64.000000pt" height="64.000000pt" viewBox="0 0 64.000000 64.000000"
 preserveAspectRatio="xMidYMid meet">

<g transform="translate(0.000000,64.000000) scale(0.100000,-0.100000)"
fill="#000000" stroke="none">
<path d="M73 529 c-59 -17 -68 -45 -68 -209 0 -221 -2 -220 315 -220 317 0
315 -1 315 220 0 168 -8 192 -72 209 -47 13 -445 13 -490 0z m270 -162 c37
-21 67 -42 67 -47 0 -6 -106 -72 -142 -88 -5 -2 -8 38 -8 88 0 50 3 90 8 88 4
-1 37 -20 75 -41z"/>
</g>
</svg>
