<?xml version="1.0" standalone="no"?>
<!DOCTYPE svg PUBLIC "-//W3C//DTD SVG 20010904//EN"
 "http://www.w3.org/TR/2001/REC-SVG-20010904/DTD/svg10.dtd">
<svg version="1.0" xmlns="http://www.w3.org/2000/svg"
 width="48.000000pt" height="48.000000pt" viewBox="0 0 48.000000 48.000000"
 preserveAspectRatio="xMidYMid meet">

<g transform="translate(0.000000,48.000000) scale(0.100000,-0.100000)"
fill="#000000" stroke="none">
<path d="M141 402 c-134 -68 -87 -264 63 -264 25 0 53 5 63 11 15 8 27 1 69
-40 48 -48 51 -49 67 -31 16 17 14 21 -32 66 -45 44 -49 51 -39 75 48 125 -74
243 -191 183z m135 -43 c63 -59 40 -166 -40 -188 -91 -24 -171 65 -135 150 28
68 122 88 175 38z"/>
</g>
</svg>
